<svg width="17" height="17" viewBox="0 0 17 17" fill="none" xmlns="http://www.w3.org/2000/svg">
<path d="M16.7656 17H0.765625V0H16.7656V17Z" stroke="#E5E7EB"/>
<g clip-path="url(#clip0_337_5315)">
<path d="M12.2406 12.8906L3.875 4.525C3.175 5.50313 2.76562 6.70312 2.76562 8C2.76562 11.3125 5.45312 14 8.76562 14C10.0625 14 11.2625 13.5906 12.2406 12.8906ZM13.6562 11.475C14.3562 10.4969 14.7656 9.29688 14.7656 8C14.7656 4.6875 12.0781 2 8.76562 2C7.46875 2 6.26875 2.40937 5.29063 3.10938L13.6562 11.475ZM0.765625 8C0.765625 5.87827 1.60848 3.84344 3.10877 2.34315C4.60906 0.842855 6.64389 0 8.76562 0C10.8874 0 12.9222 0.842855 14.4225 2.34315C15.9228 3.84344 16.7656 5.87827 16.7656 8C16.7656 10.1217 15.9228 12.1566 14.4225 13.6569C12.9222 15.1571 10.8874 16 8.76562 16C6.64389 16 4.60906 15.1571 3.10877 13.6569C1.60848 12.1566 0.765625 10.1217 0.765625 8Z" fill="white"/>
</g>
<defs>
<clipPath id="clip0_337_5315">
<path d="M0.765625 0H16.7656V16H0.765625V0Z" fill="white"/>
</clipPath>
</defs>
</svg>
