<svg width="15" height="15" viewBox="0 0 15 15" fill="none" xmlns="http://www.w3.org/2000/svg">
<path d="M8.31582 0.511294C8.16527 0.198837 7.84713 0 7.49775 0C7.14836 0 6.83307 0.198837 6.67968 0.511294L4.85322 4.26931L0.774226 4.8715C0.433363 4.92263 0.149311 5.16123 0.0442112 5.48789C-0.0608882 5.81455 0.0243275 6.1753 0.268613 6.41675L3.22844 9.34533L2.52967 13.484C2.47286 13.8248 2.61489 14.1714 2.8961 14.3731C3.17731 14.5747 3.54942 14.6003 3.8562 14.4384L7.50059 12.4926L11.145 14.4384C11.4518 14.6003 11.8239 14.5776 12.1051 14.3731C12.3863 14.1685 12.5283 13.8248 12.4715 13.484L11.7699 9.34533L14.7297 6.41675C14.974 6.1753 15.0621 5.81455 14.9541 5.48789C14.8462 5.16123 14.565 4.92263 14.2241 4.8715L10.1423 4.26931L8.31582 0.511294Z" fill="white"/>
</svg>
