<svg width="9" height="9" viewBox="0 0 9 9" fill="none" xmlns="http://www.w3.org/2000/svg">
<path d="M8.73384 1.53705C9.08524 1.18564 9.08524 0.61496 8.73384 0.263554C8.38243 -0.0878514 7.81175 -0.0878514 7.46034 0.263554L4.5001 3.22661L1.53705 0.266365C1.18564 -0.0850402 0.61496 -0.0850402 0.263554 0.266365C-0.0878514 0.617771 -0.0878514 1.18845 0.263554 1.53986L3.22661 4.5001L0.266366 7.46315C-0.0850401 7.81456 -0.0850401 8.38524 0.266366 8.73665C0.617771 9.08805 1.18845 9.08805 1.53986 8.73665L4.5001 5.77359L7.46315 8.73384C7.81456 9.08524 8.38524 9.08524 8.73665 8.73384C9.08805 8.38243 9.08805 7.81175 8.73665 7.46034L5.77359 4.5001L8.73384 1.53705Z" fill="#9CA3AF"/>
</svg>
