<svg width="14" height="15" viewBox="0 0 14 15" fill="none" xmlns="http://www.w3.org/2000/svg">
<path d="M13.125 0.876522C13.125 0.523788 12.9117 0.203866 12.5836 0.0671472C12.2555 -0.0695715 11.8809 0.00699097 11.6293 0.255819L10.4371 1.45074C9.12461 2.76324 7.34453 3.50152 5.48789 3.50152H5.25H4.375H1.75C0.784766 3.50152 0 4.28629 0 5.25152V7.87652C0 8.84176 0.784766 9.62652 1.75 9.62652V13.1265C1.75 13.6105 2.14102 14.0015 2.625 14.0015H4.375C4.85898 14.0015 5.25 13.6105 5.25 13.1265V9.62652H5.48789C7.34453 9.62652 9.12461 10.3648 10.4371 11.6773L11.6293 12.8695C11.8809 13.1211 12.2555 13.1949 12.5836 13.0582C12.9117 12.9214 13.125 12.6043 13.125 12.2488V8.21558C13.6336 7.97496 14 7.32691 14 6.56402C14 5.80113 13.6336 5.15308 13.125 4.91246V0.876522ZM11.375 2.97379V6.56402V10.1543C9.76719 8.69137 7.66992 7.87652 5.48789 7.87652H5.25V5.25152H5.48789C7.66992 5.25152 9.76719 4.43668 11.375 2.97379Z" fill="white"/>
</svg>
