<svg width="12" height="12" viewBox="0 0 12 12" fill="none" xmlns="http://www.w3.org/2000/svg">
<path d="M7 0.9375C7 0.453516 6.60898 0.0625 6.125 0.0625C5.64102 0.0625 5.25 0.453516 5.25 0.9375V4.875H1.3125C0.828516 4.875 0.4375 5.26602 0.4375 5.75C0.4375 6.23398 0.828516 6.625 1.3125 6.625H5.25V10.5625C5.25 11.0465 5.64102 11.4375 6.125 11.4375C6.60898 11.4375 7 11.0465 7 10.5625V6.625H10.9375C11.4215 6.625 11.8125 6.23398 11.8125 5.75C11.8125 5.26602 11.4215 4.875 10.9375 4.875H7V0.9375Z" fill="white"/>
</svg>
