<svg width="18" height="11" viewBox="0 0 18 11" fill="none" xmlns="http://www.w3.org/2000/svg">
<path fill-rule="evenodd" clip-rule="evenodd" d="M0.412554 0.406402C0.670047 0.158668 1.01536 0.0232961 1.37261 0.0300367C1.72987 0.0367773 2.06982 0.185079 2.31779 0.44235L8.98611 7.52048L15.6544 0.44235C15.7757 0.308724 15.9224 0.200787 16.0861 0.124935C16.2498 0.0490835 16.4271 0.00686109 16.6074 0.000768877C16.7877 -0.00532333 16.9674 0.0248384 17.1358 0.0894681C17.3043 0.154098 17.458 0.25188 17.588 0.377021C17.7179 0.502161 17.8214 0.652113 17.8924 0.817992C17.9633 0.983871 18.0002 1.1623 18.0009 1.34271C18.0017 1.52312 17.9662 1.70184 17.8965 1.86827C17.8269 2.03471 17.7246 2.18547 17.5956 2.31164L9.95671 10.3999C9.83096 10.5304 9.68019 10.6341 9.51343 10.705C9.34666 10.7759 9.16732 10.8124 8.98611 10.8124C8.80491 10.8124 8.62557 10.7759 8.4588 10.705C8.29204 10.6341 8.14127 10.5304 8.01552 10.3999C8.01552 10.3999 0.624342 2.56913 0.376606 2.31164C0.12887 2.05415 -0.00650045 1.70883 0.000240191 1.35158C0.00698083 0.994327 0.155281 0.654366 0.412554 0.406402Z" fill="black"/>
</svg>
