<svg width="18" height="8" viewBox="0 0 18 8" fill="none" xmlns="http://www.w3.org/2000/svg">
<path fill-rule="evenodd" clip-rule="evenodd" d="M0.41254 0.283398C0.670024 0.110644 1.01532 0.0162452 1.37257 0.0209456C1.72981 0.0256461 2.06976 0.129062 2.31771 0.308466L8.98581 5.24428L15.6539 0.308466C15.7751 0.215283 15.9219 0.140015 16.0856 0.0871215C16.2493 0.0342276 16.4265 0.00478447 16.6068 0.000536164C16.7871 -0.00371214 16.9668 0.0173206 17.1353 0.0623891C17.3037 0.107458 17.4574 0.175645 17.5874 0.262909C17.7173 0.350174 17.8208 0.45474 17.8918 0.570413C17.9627 0.686086 17.9996 0.810512 18.0003 0.936318C18.0011 1.06212 17.9655 1.18675 17.8959 1.30281C17.8263 1.41887 17.724 1.524 17.595 1.61198L9.95637 7.2522C9.83062 7.34318 9.67987 7.41555 9.51311 7.46498C9.34635 7.5144 9.16701 7.53988 8.98581 7.53988C8.80461 7.53988 8.62528 7.5144 8.45852 7.46498C8.29176 7.41555 8.141 7.34318 8.01525 7.2522C8.01525 7.2522 0.624321 1.79154 0.376593 1.61198C0.128866 1.43243 -0.00650023 1.19163 0.000240183 0.942502C0.0069806 0.693378 0.155276 0.456312 0.41254 0.283398Z" fill="black"/>
</svg>
