<svg width="16" height="16" viewBox="0 0 16 16" fill="none" xmlns="http://www.w3.org/2000/svg">
<path d="M14.8902 0.518599C14.1987 -0.172866 13.081 -0.172866 12.3895 0.518599L11.4392 1.46581L14.5302 4.55688L15.4806 3.60651C16.1721 2.91505 16.1721 1.79734 15.4806 1.10587L14.8902 0.518599ZM5.44332 7.46482C5.25071 7.65743 5.10232 7.89423 5.01707 8.15629L4.08249 10.96C3.99092 11.2316 4.06354 11.5315 4.26561 11.7368C4.46769 11.942 4.76764 12.0114 5.04233 11.9199L7.84608 10.9853C8.10498 10.9 8.34179 10.7517 8.53754 10.5591L13.8198 5.27361L10.7256 2.17938L5.44332 7.46482ZM3.03108 1.85417C1.35767 1.85417 0 3.21184 0 4.88525V12.9681C0 14.6415 1.35767 15.9992 3.03108 15.9992H11.114C12.7874 15.9992 14.145 14.6415 14.145 12.9681V9.93705C14.145 9.37819 13.6935 8.92669 13.1347 8.92669C12.5758 8.92669 12.1243 9.37819 12.1243 9.93705V12.9681C12.1243 13.527 11.6728 13.9785 11.114 13.9785H3.03108C2.47223 13.9785 2.02072 13.527 2.02072 12.9681V4.88525C2.02072 4.32639 2.47223 3.87489 3.03108 3.87489H6.06216C6.62102 3.87489 7.07252 3.42338 7.07252 2.86453C7.07252 2.30567 6.62102 1.85417 6.06216 1.85417H3.03108Z" fill="white"/>
</svg>
