<svg width="32" height="32" viewBox="0 0 32 32" fill="none" xmlns="http://www.w3.org/2000/svg">
<path d="M14.1557 4.34715C15.0496 7.41175 14.1369 10.5049 12.1177 11.2621C10.0985 12.0194 7.73552 10.1477 6.84157 7.08315C5.94762 4.01855 6.86032 0.92537 8.87952 0.168149C10.8987 -0.589072 13.2617 1.28255 14.1557 4.34715ZM6.27269 11.8979C7.4542 14.2125 7.16664 16.9056 5.63505 17.9057C4.10346 18.9058 1.90298 17.8414 0.727718 15.5269C-0.447542 13.2123 -0.172481 10.5192 1.35911 9.51911C2.8907 8.51901 5.09118 9.58341 6.26644 11.8979H6.27269ZM4.32226 26.3708C7.59799 16.277 13.418 13.7124 15.9998 13.7124C18.5817 13.7124 24.4017 16.277 27.6774 26.3708C27.9025 27.0638 28.0025 27.8067 28.0025 28.5496V28.6639C28.0025 30.507 26.696 32 25.0831 32C24.3642 32 23.6515 31.9 22.9576 31.7L17.4564 30.1284C16.5 29.8569 15.4997 29.8569 14.5433 30.1284L9.04206 31.7C8.34815 31.9 7.63549 32 6.91659 32C5.30373 32 3.99719 30.507 3.99719 28.6639V28.5496C3.99719 27.8067 4.09721 27.0638 4.32226 26.3708ZM26.3646 17.9057C24.833 16.9056 24.5455 14.2125 25.727 11.8979C26.9085 9.58341 29.1027 8.51901 30.6343 9.51911C32.1659 10.5192 32.4535 13.2123 31.272 15.5269C30.0905 17.8414 27.8962 18.9058 26.3646 17.9057ZM19.3818 11.2621C17.3626 10.5049 16.4499 7.41175 17.3439 4.34715C18.2378 1.28255 20.6009 -0.589072 22.6201 0.168149C24.6393 0.92537 25.552 4.01855 24.658 7.08315C23.7641 10.1477 21.401 12.0194 19.3818 11.2621Z" fill="white"/>
</svg>
