<svg width="43" height="31" viewBox="0 0 43 31" fill="none" xmlns="http://www.w3.org/2000/svg">
<path d="M9.675 31C4.33359 31 0 26.5368 0 21.0357C0 16.6902 2.70094 12.9951 6.46344 11.6319C6.45672 11.4451 6.45 11.2583 6.45 11.0714C6.45 4.95446 11.2606 0 17.2 0C21.1842 0 24.6578 2.22812 26.5189 5.54955C27.5402 4.84375 28.7764 4.42857 30.1 4.42857C33.6609 4.42857 36.55 7.40402 36.55 11.0714C36.55 11.9156 36.3955 12.7183 36.12 13.4656C40.0438 14.2821 43 17.8596 43 22.1429C43 27.035 39.1502 31 34.4 31H9.675ZM14.9828 15.9844C14.3513 16.6348 14.3513 17.6866 14.9828 18.3301C15.6144 18.9737 16.6356 18.9806 17.2605 18.3301L19.8808 15.6315V24.9107C19.8808 25.831 20.5997 26.5714 21.4933 26.5714C22.3869 26.5714 23.1058 25.831 23.1058 24.9107V15.6315L25.7261 18.3301C26.3577 18.9806 27.3789 18.9806 28.0037 18.3301C28.6286 17.6797 28.6353 16.6279 28.0037 15.9844L22.6287 10.4487C21.9972 9.79821 20.9759 9.79821 20.3511 10.4487L14.9761 15.9844H14.9828Z" fill="#9CA3AF"/>
</svg>
